<svg xmlns="http://www.w3.org/2000/svg" width="800" height="132" viewBox="0 0 800 132" role="img" aria-labelledby="title">
<title id="title">Ana Ramos technology skills</title>
<defs><linearGradient id="bg" x2="1"><stop stop-color="#090812"/><stop offset="1" stop-color="#10091b"/></linearGradient><radialGradient id="glow"><stop stop-color="#1450ff" stop-opacity=".24"/><stop offset="1" stop-color="#1450ff" stop-opacity="0"/></radialGradient></defs>
<rect x="1" y="1" width="798" height="130" rx="16" fill="url(#bg)" stroke="#7153b5" stroke-opacity=".3"/><ellipse cx="620" cy="65" rx="230" ry="100" fill="url(#glow)"/>
<g font-family="Inter,Segoe UI,Arial,sans-serif" font-size="13" font-weight="700" text-anchor="middle">
<g fill="#0b0a15"><rect x="20" y="22" width="86" height="36" rx="17" stroke="#78c8ff" stroke-opacity=".4"/><rect x="115" y="22" width="86" height="36" rx="17" stroke="#c878ff" stroke-opacity=".4"/><rect x="210" y="22" width="86" height="36" rx="17" stroke="#ff88cc" stroke-opacity=".4"/><rect x="305" y="22" width="86" height="36" rx="17" stroke="#9ee79e" stroke-opacity=".4"/><rect x="400" y="22" width="86" height="36" rx="17" stroke="#ffcc88" stroke-opacity=".4"/><rect x="495" y="22" width="86" height="36" rx="17" stroke="#78d4ff" stroke-opacity=".4"/><rect x="590" y="22" width="86" height="36" rx="17" stroke="#e8c8ff" stroke-opacity=".4"/><rect x="685" y="22" width="95" height="36" rx="17" stroke="#ff88cc" stroke-opacity=".4"/><rect x="95" y="74" width="94" height="36" rx="17" stroke="#78c8ff" stroke-opacity=".4"/><rect x="198" y="74" width="94" height="36" rx="17" stroke="#c878ff" stroke-opacity=".4"/><rect x="301" y="74" width="94" height="36" rx="17" stroke="#ff88cc" stroke-opacity=".4"/><rect x="404" y="74" width="94" height="36" rx="17" stroke="#9ee79e" stroke-opacity=".4"/><rect x="507" y="74" width="94" height="36" rx="17" stroke="#ffcc88" stroke-opacity=".4"/><rect x="610" y="74" width="94" height="36" rx="17" stroke="#78d4ff" stroke-opacity=".4"/></g>
<g fill="#dcd9ec"><text x="63" y="45">Java</text><text x="158" y="45">Kotlin</text><text x="253" y="45">Python</text><text x="348" y="45">Dart</text><text x="443" y="45">SQL</text><text x="538" y="45">HTML</text><text x="633" y="45">CSS</text><text x="732" y="45">Flutter</text><text x="142" y="97">Unity</text><text x="245" y="97">Docker</text><text x="348" y="97">MySQL</text><text x="451" y="97">Oracle</text><text x="554" y="97">Git</text><text x="657" y="97">UI/UX</text></g></g>
</svg>
